# xmcd CD database file
#
# Track frame offsets:
#	150
#	14605
#	25207
#	37397
#	51120
#	63677
#	76535
#	91690
#	106262
#	119507
#	131830
#	144462
#	156787
#	167172
#	179335
#	193435
#	208732
#	226645
#	240130
#	251935
#	266142
#	277550
#
# Disc length: 3993 seconds
#
# Revision: 0
# Processed by: cddbd v1.5.1PL2 Copyright (c) Steve Scherf et al.
# Submitted via: CDex 1.51
#
DISCID=350f9716
DTITLE=NOËL JAZZ - Body and Soul
DYEAR=2004
DGENRE=Jazz
TTITLE0=01 - Nat King Cole - The christmas song 
TTITLE1=02 - Mabel Scott - Boogie Woogie Santa Claus
TTITLE2=03 - Louis Armstrong - White Christmas 
TTITLE3=04 - Fats Waller - Swingin' them jingle bells
TTITLE4=05 - Charles Brown - Merry Christmas Baby 
TTITLE5=06 - Django Reinhardt - Christmas swing
TTITLE6=07 - Ester Phillips - Far away Christmas Blues
TTITLE7=08 - Louis Prima - What will Santa Claus say?
TTITLE8=09 - Al Hibbler - White Christmas 
TTITLE9=10 - Lloyd Glenn - Sleigh ride
TTITLE10=11 - Julia Lee - Christmas spirits
TTITLE11=12 - Lionel Hampton - Boogie woogie Snta Claus
TTITLE12=13 - Willie Lewis - Christmas night in Harlem
TTITLE13=14 - Felix  Gross - Love for christmas
TTITLE14=15 - Benny Goodman - Santa Claus came in the spring
TTITLE15=16 - Tommy Dorsey - Santa Claus is comin' to town
TTITLE16=17 - Errol Garner - Great Christmas - White Christmas
TTITLE17=18 - Duke Ellington - Santa Clauss bring my man back
TTITLE18=19 - Washboard Pete - Christmas Blues
TTITLE19=20 - Elle fitzgerald - Santa Claus got stuck in my chimney 
TTITLE20=21 - Lowell Fulsom - Original lonesome Christmas
TTITLE21=22 - Charlie Parker - White Christmas
EXTD=YEAR: 2004
EXTT0=
EXTT1=
EXTT2=
EXTT3=
EXTT4=
EXTT5=
EXTT6=
EXTT7=
EXTT8=
EXTT9=
EXTT10=
EXTT11=
EXTT12=
EXTT13=
EXTT14=
EXTT15=
EXTT16=
EXTT17=
EXTT18=
EXTT19=
EXTT20=
EXTT21=
PLAYORDER=
